# xmcd CD database file
#
# Track frame offsets:
#	150
#	18339
#	33889
#	46790
#	56689
#	71274
#	84848
#	99163
#	111737
#	124813
#	155080
#	167631
#	183853
#	198743
#	211339
#	226079
#	236449
#	250804
#	273651
#	285996
#
# Disc length: 4028 seconds
#
# Revision: 0
# Processed by: cddbd v1.5.2PL0 Copyright (c) Steve Scherf et al.
# Submitted via: CDex 1.70beta2
#
DISCID=090fba14
DTITLE=Compilation Jazz - Jazz
DYEAR=2011
DGENRE=Jazz
TTITLE0=Louis Armstrong - When you're smiling (1929)
TTITLE1=Nat King Cole - Unforgettable (1951)
TTITLE2=Julie Garland - Over the rainbow (1939)
TTITLE3=Frank Sinatra - Chicago (1957)
TTITLE4=Cab Calloway - Minnie the mooche (1942)
TTITLE5=Billy Holiday - Night and day (1939)
TTITLE6=Miles Davis - Venus de Milo (1957)
TTITLE7=Julie London - Cry me a river (1955)
TTITLE8=Duke Ellington - Take the A train (1929)
TTITLE9=Dave Brubeck - Blu rondo a la turk (1959)
TTITLE10=Errol Garner - Misty (1953)
TTITLE11=Glenn Miller - In the mood (1944)
TTITLE12=Sidney Bechet - Petite fleur (1952)
TTITLE13=Stan Getz - Indian summer (1949)
TTITLE14=Stephane Grappellli and Django Reinhardt - Nuages (1940)
TTITLE15=Chet Baker - My funny Valentine (1954)
TTITLE16=Ella Fitzgerald - Blue moon (1957)
TTITLE17=Ray Charles - What'd I say (1959)
TTITLE18=James Brown - Please, please, please (1956)
TTITLE19=Nina Simone - Ma baby just cares for me (1957)
EXTD=YEAR: 2011
EXTT0=
EXTT1=
EXTT2=
EXTT3=
EXTT4=
EXTT5=
EXTT6=
EXTT7=
EXTT8=
EXTT9=
EXTT10=
EXTT11=
EXTT12=
EXTT13=
EXTT14=
EXTT15=
EXTT16=
EXTT17=
EXTT18=
EXTT19=
PLAYORDER=
